<svg width="24" height="31" viewBox="0 0 24 31" fill="none" xmlns="http://www.w3.org/2000/svg">
<path d="M0.645031 31V28.012C2.98503 26.224 5.03103 24.604 6.78303 23.152C8.53503 21.688 10.029 20.362 11.265 19.174C12.501 17.986 13.503 16.906 14.271 15.934C15.039 14.95 15.597 14.05 15.945 13.234C16.305 12.406 16.485 11.626 16.485 10.894C16.485 9.982 16.269 9.154 15.837 8.41C15.405 7.654 14.817 7.054 14.073 6.61C13.341 6.166 12.513 5.944 11.589 5.944C10.701 5.944 9.87903 6.172 9.12303 6.628C8.37903 7.072 7.72503 7.732 7.16103 8.608C6.59703 9.484 6.12903 10.558 5.75703 11.83L0.861031 9.544C1.22103 8.188 1.73703 6.97 2.40903 5.89C3.09303 4.798 3.90903 3.868 4.85703 3.1C5.81703 2.332 6.89103 1.744 8.07903 1.336C9.26703 0.927999 10.551 0.723999 11.931 0.723999C14.031 0.723999 15.897 1.162 17.529 2.038C19.161 2.902 20.439 4.084 21.363 5.584C22.299 7.084 22.767 8.794 22.767 10.714C22.767 11.674 22.635 12.616 22.371 13.54C22.107 14.464 21.693 15.4 21.129 16.348C20.565 17.284 19.833 18.25 18.933 19.246C18.033 20.23 16.947 21.268 15.675 22.36C14.415 23.44 12.945 24.592 11.265 25.816H23.307V31H0.645031Z" fill="white"/>
</svg>
