<svg width="22" height="32" viewBox="0 0 22 32" fill="none" xmlns="http://www.w3.org/2000/svg">
<path d="M10.8911 31.576C9.11509 31.576 7.48909 31.27 6.01309 30.658C4.53709 30.046 3.28909 29.188 2.26909 28.084C1.24909 26.98 0.535094 25.678 0.127094 24.178L5.52709 21.622C5.61109 22.582 5.87509 23.434 6.31909 24.178C6.77509 24.91 7.39309 25.486 8.17309 25.906C8.96509 26.314 9.87709 26.518 10.9091 26.518C12.3491 26.518 13.4951 26.122 14.3471 25.33C15.2111 24.538 15.6431 23.488 15.6431 22.18C15.6431 21.244 15.4331 20.41 15.0131 19.678C14.5931 18.934 14.0231 18.352 13.3031 17.932C12.5951 17.5 11.8031 17.284 10.9271 17.284C10.4231 17.284 9.99109 17.356 9.63109 17.5V13.612H10.9811C11.7611 13.612 12.4631 13.42 13.0871 13.036C13.7231 12.64 14.2271 12.118 14.5991 11.47C14.9831 10.822 15.1751 10.126 15.1751 9.382C15.1751 8.65 14.9831 7.99 14.5991 7.402C14.2271 6.814 13.7231 6.346 13.0871 5.998C12.4511 5.65 11.7371 5.476 10.9451 5.476C10.1531 5.476 9.41509 5.656 8.73109 6.016C8.05909 6.376 7.50109 6.868 7.05709 7.492C6.61309 8.116 6.33109 8.836 6.21109 9.652L1.58509 7.492C1.92109 6.148 2.53909 4.972 3.43909 3.964C4.33909 2.944 5.44309 2.158 6.75109 1.606C8.07109 1.042 9.50509 0.759999 11.0531 0.759999C12.8651 0.759999 14.4791 1.132 15.8951 1.876C17.3231 2.62 18.4451 3.634 19.2611 4.918C20.0771 6.19 20.4851 7.642 20.4851 9.274C20.4851 10.114 20.3591 10.9 20.1071 11.632C19.8671 12.364 19.5191 13.03 19.0631 13.63C18.6071 14.23 18.0551 14.746 17.4071 15.178C18.2471 15.622 18.9731 16.186 19.5851 16.87C20.1971 17.554 20.6651 18.34 20.9891 19.228C21.3131 20.104 21.4751 21.082 21.4751 22.162C21.4751 23.962 21.0311 25.576 20.1431 27.004C19.2551 28.42 18.0131 29.536 16.4171 30.352C14.8331 31.168 12.9911 31.576 10.8911 31.576Z" fill="white"/>
</svg>
